<svg width="28" height="19" viewBox="0 0 28 19" fill="none" xmlns="http://www.w3.org/2000/svg">
<path d="M27.2422 3C27.2422 1.3458 26.0594 0 24.6055 0H3.39453C1.94064 0 0.757812 1.3458 0.757812 3V18.6667H27.2422V3ZM10.2918 12.042C10.595 12.4733 10.5335 13.1025 10.1545 13.4475C9.77545 13.7925 9.22238 13.7226 8.91916 13.2913L6.57541 9.958C6.31859 9.5928 6.31859 9.07387 6.57541 8.70867L8.91916 5.37533C9.22238 4.94407 9.77551 4.87413 10.1545 5.21913C10.5335 5.56413 10.595 6.1934 10.2918 6.62467L8.38725 9.33333L10.2918 12.042ZM16.0274 3.89573L13.6837 15.229C13.5725 15.7666 13.0993 16.0999 12.6268 15.9734C12.1543 15.8469 11.8614 15.3085 11.9725 14.7709L14.3163 3.43767C14.4274 2.90007 14.9006 2.5668 15.3731 2.69327C15.8457 2.81973 16.1386 3.35813 16.0274 3.89573ZM21.4246 9.958L19.0808 13.2913C18.7776 13.7226 18.2245 13.7925 17.8455 13.4475C17.4665 13.1025 17.405 12.4733 17.7082 12.042L19.6128 9.33333L17.7082 6.62467C17.405 6.1934 17.4665 5.56413 17.8455 5.21913C18.2246 4.87413 18.7776 4.94407 19.0808 5.37533L21.4246 8.70867C21.6813 9.07387 21.6813 9.5928 21.4246 9.958Z" fill="white"/>
</svg>
