<svg width="65" height="59" viewBox="0 0 65 59" fill="none" xmlns="http://www.w3.org/2000/svg">
<path d="M6.10352e-05 50.4473V52.3516C6.10352e-05 55.5017 2.56286 58.0645 5.71295 58.0645H59.2872C62.4373 58.0645 65.0001 55.5017 65.0001 52.3516V50.4473H6.10352e-05Z" fill="#2928E8"/>
<path d="M62.035 40.291H2.96503L0.584656 46.6387H64.4154L62.035 40.291Z" fill="#2928E8"/>
<path d="M61.1915 6.64844C61.1915 3.49835 58.6287 0.935547 55.4786 0.935547H9.52155C6.37146 0.935547 3.80865 3.49835 3.80865 6.64844V36.4824H61.1915V6.64844ZM23.4586 22.5903C23.0393 24.939 20.7961 26.6436 18.125 26.6436C15.986 26.6436 13.8963 25.7468 12.535 24.2446C11.9465 23.5953 11.9959 22.5916 12.6454 22.0032C13.2948 21.4146 14.2984 21.4641 14.8868 22.1135C15.6564 22.9627 16.8669 23.4699 18.1249 23.4699C19.3471 23.4699 20.2078 22.7391 20.334 22.0326C20.5017 21.0937 19.2302 20.5167 18.6756 20.3121C16.711 19.5875 14.9666 18.8109 14.8933 18.7783C14.8169 18.7442 14.7433 18.7042 14.6732 18.6585C13.3364 17.7871 12.6476 16.2585 12.8756 14.6697C13.1188 12.9764 14.3568 11.5969 16.1069 11.0698C19.3442 10.0946 22.3038 11.7968 22.9174 12.9444C23.3305 13.7173 23.0388 14.6789 22.2659 15.0921C21.5672 15.4655 20.7147 15.2631 20.2521 14.6502C19.9326 14.3795 18.6283 13.6251 17.0224 14.1088C16.2115 14.3531 16.0495 14.8979 16.0175 15.1208C15.9945 15.281 15.983 15.6654 16.3259 15.9414C16.7708 16.1363 18.2188 16.761 19.774 17.3347C22.972 18.5139 23.7742 20.8229 23.4586 22.5903ZM32.876 17.1221C33.7523 17.1221 34.4629 17.8325 34.4629 18.709C34.4629 19.5855 33.7523 20.2959 32.876 20.2959H29.508V23.4697H33.2704C34.1468 23.4697 34.8573 24.1803 34.8573 25.0566C34.8573 25.933 34.1468 26.6436 33.2704 26.6436H27.9211C27.0448 26.6436 26.3342 25.933 26.3342 25.0566V12.3613C26.3342 11.485 27.0448 10.7744 27.9211 10.7744H33.2704C34.1468 10.7744 34.8573 11.485 34.8573 12.3613C34.8573 13.2377 34.1468 13.9482 33.2704 13.9482H29.508V17.1221H32.876ZM44.9415 26.6436C40.5663 26.6436 37.0069 23.084 37.0069 18.709C37.0069 14.3339 40.5663 10.7744 44.9415 10.7744C49.3167 10.7744 52.876 14.3339 52.876 18.709C52.876 23.084 49.3167 26.6436 44.9415 26.6436Z" fill="#2928E8"/>
<path d="M44.9415 23.4697C47.5708 23.4697 49.7022 21.3383 49.7022 18.709C49.7022 16.0797 47.5708 13.9482 44.9415 13.9482C42.3122 13.9482 40.1807 16.0797 40.1807 18.709C40.1807 21.3383 42.3122 23.4697 44.9415 23.4697Z" fill="#2928E8"/>
</svg>
