<svg width="40" height="36" viewBox="0 0 40 36" fill="none" xmlns="http://www.w3.org/2000/svg">
<path d="M0 30.8906V32.0625C0 34.001 1.57711 35.5781 3.51562 35.5781H36.4844C38.4229 35.5781 40 34.001 40 32.0625V30.8906H0Z" fill="#140B43"/>
<path d="M38.1754 24.6406H1.82461L0.359764 28.5469H39.6402L38.1754 24.6406Z" fill="#140B43"/>
<path d="M37.6562 3.9375C37.6562 1.99898 36.0791 0.421875 34.1406 0.421875H5.85938C3.92086 0.421875 2.34375 1.99898 2.34375 3.9375V22.2969H37.6562V3.9375ZM14.436 13.7479C14.178 15.1932 12.7976 16.2422 11.1538 16.2422C9.8375 16.2422 8.55156 15.6903 7.71383 14.7659C7.35164 14.3663 7.38203 13.7487 7.78172 13.3866C8.18141 13.0244 8.79898 13.0548 9.16109 13.4545C9.63469 13.977 10.3796 14.2891 11.1538 14.2891C11.9059 14.2891 12.4355 13.8395 12.5132 13.4047C12.6164 12.8269 11.8339 12.4718 11.4927 12.3459C10.2837 11.9 9.21016 11.4221 9.16508 11.402C9.11805 11.381 9.07273 11.3564 9.02961 11.3283C8.20695 10.792 7.78312 9.85141 7.92344 8.87367C8.07305 7.83164 8.83492 6.98273 9.91188 6.65836C11.9041 6.0582 13.7254 7.1057 14.103 7.81195C14.3572 8.28758 14.1777 8.8793 13.702 9.13359C13.2721 9.36336 12.7475 9.23883 12.4628 8.86164C12.2662 8.69508 11.4635 8.23086 10.4753 8.52852C9.97625 8.67883 9.87656 9.01406 9.85687 9.15125C9.84273 9.24984 9.83563 9.48641 10.0466 9.65625C10.3205 9.77617 11.2116 10.1606 12.1686 10.5137C14.1366 11.2393 14.6302 12.6602 14.436 13.7479ZM20.2313 10.3828C20.7706 10.3828 21.2079 10.82 21.2079 11.3594C21.2079 11.8988 20.7706 12.3359 20.2313 12.3359H18.1588V14.2891H20.4741C21.0134 14.2891 21.4506 14.7263 21.4506 15.2656C21.4506 15.8049 21.0134 16.2422 20.4741 16.2422H17.1822C16.6429 16.2422 16.2056 15.8049 16.2056 15.2656V7.45312C16.2056 6.91383 16.6429 6.47656 17.1822 6.47656H20.4741C21.0134 6.47656 21.4506 6.91383 21.4506 7.45312C21.4506 7.99242 21.0134 8.42969 20.4741 8.42969H18.1588V10.3828H20.2313ZM27.6562 16.2422C24.9638 16.2422 22.7734 14.0517 22.7734 11.3594C22.7734 8.66703 24.9638 6.47656 27.6562 6.47656C30.3487 6.47656 32.5391 8.66703 32.5391 11.3594C32.5391 14.0517 30.3487 16.2422 27.6562 16.2422Z" fill="#140B43"/>
<path d="M27.6562 14.2891C29.2743 14.2891 30.5859 12.9774 30.5859 11.3594C30.5859 9.74135 29.2743 8.42969 27.6562 8.42969C26.0382 8.42969 24.7266 9.74135 24.7266 11.3594C24.7266 12.9774 26.0382 14.2891 27.6562 14.2891Z" fill="#140B43"/>
</svg>
