<svg width="40" height="40" viewBox="0 0 40 40" fill="none" xmlns="http://www.w3.org/2000/svg">
<path d="M32.4219 33.75H9.76563C9.11844 33.75 8.59376 34.2747 8.59376 34.9219V36.875C8.59376 38.0363 8.22876 39.1134 7.60907 40H30.4687C32.1946 40 33.5937 38.6009 33.5937 36.875V34.9219C33.5937 34.2747 33.0691 33.75 32.4219 33.75Z" fill="#140B43"/>
<path d="M22.3912 26.2295L27.4575 21.3896L23.3238 18.4951L20.5086 24.9112C19.9939 26.0843 21.465 27.1143 22.3912 26.2295Z" fill="#140B43"/>
<path d="M38.8337 0.743512C37.5967 -0.122659 35.8917 0.177966 35.0255 1.415L33.6812 3.33492L38.161 6.47163L39.5053 4.55171C40.3715 3.31468 40.0708 1.60968 38.8337 0.743512Z" fill="#140B43"/>
<path d="M24.5037 16.4619L32.3513 5.26465L36.8302 8.40371L28.9826 19.601L24.5037 16.4619Z" fill="#140B43"/>
<path d="M28.9062 31.4062V23.247L24.0101 27.9242C23.3473 28.5574 22.4889 28.9062 21.5933 28.9062C21.5931 28.9062 21.593 28.9062 21.5927 28.9062C21.229 28.9062 16.0155 28.9062 16.0155 28.9062C15.3495 28.9062 14.8133 28.3507 14.845 27.6777C14.8747 27.0474 15.4176 26.5625 16.0487 26.5625H18.2634C17.9671 25.7324 17.9944 24.8079 18.3623 23.9696L19.6241 21.0937H5.8925C5.26148 21.0937 4.71851 20.6088 4.68883 19.9785C4.65711 19.3055 5.19336 18.75 5.85937 18.75H20.6525L21.6809 16.4062H5.8925C5.26148 16.4062 4.71851 15.9213 4.68883 15.291C4.65711 14.618 5.19336 14.0625 5.85937 14.0625H23.3087L28.9062 6.06812V1.17187C28.9062 0.524687 28.3815 0 27.7344 0H1.17187C0.524687 0 0 0.524687 0 1.17187V36.8133C0 38.5655 1.43398 40.033 3.18594 39.9994C4.88367 39.9669 6.25 38.5805 6.25 36.875V34.9219C6.25 32.9802 7.82398 31.4062 9.76562 31.4062H28.9062ZM10.5469 4.6875H18.3594C19.0066 4.6875 19.5312 5.21218 19.5312 5.85937C19.5312 6.50656 19.0066 7.03125 18.3594 7.03125H10.5469C9.89968 7.03125 9.375 6.50656 9.375 5.85937C9.375 5.21218 9.89968 4.6875 10.5469 4.6875ZM5.85937 9.375H23.0469C23.6941 9.375 24.2187 9.89968 24.2187 10.5469C24.2187 11.1941 23.6941 11.7187 23.0469 11.7187H5.85937C5.21218 11.7187 4.6875 11.1941 4.6875 10.5469C4.6875 9.89968 5.21218 9.375 5.85937 9.375ZM5.85937 25.7812C5.21218 25.7812 4.6875 25.2565 4.6875 24.6094C4.6875 23.9622 5.21218 23.4375 5.85937 23.4375H12.1094C12.7566 23.4375 13.2812 23.9622 13.2812 24.6094C13.2812 25.2565 12.7566 25.7812 12.1094 25.7812H5.85937Z" fill="#140B43"/>
</svg>
